<svg width="32" height="32" viewBox="0 0 32 32" fill="none" xmlns="http://www.w3.org/2000/svg">
<g opacity="0.4">
<rect width="32" height="32" rx="12" fill="#44CEC6"/>
<path fill-rule="evenodd" clip-rule="evenodd" d="M21.9862 14.741C21.755 14.9783 21.3751 14.9833 21.1378 14.7521L16.6115 10.3424L16.6115 23.08C16.6115 23.4114 16.3429 23.68 16.0115 23.68C15.6802 23.68 15.4115 23.4114 15.4115 23.08L15.4115 10.3424L10.8853 14.7521C10.6479 14.9833 10.2681 14.9783 10.0368 14.741C9.80558 14.5036 9.81053 14.1238 10.0479 13.8925L15.5928 8.49037C15.8258 8.26338 16.1972 8.26338 16.4302 8.49037L21.9752 13.8925C22.2125 14.1238 22.2175 14.5036 21.9862 14.741Z" fill="white"/>
</g>
</svg>
