<svg width="191" height="140" viewBox="0 0 191 140" fill="none" xmlns="http://www.w3.org/2000/svg">
<path d="M170.987 117.756C170.987 120.482 168.777 122.692 166.051 122.692C163.325 122.692 161.115 120.482 161.115 117.756C161.115 115.03 163.325 112.82 166.051 112.82C168.777 112.82 170.987 115.03 170.987 117.756Z" fill="#FFF0F2"/>
<path d="M186.5 90.2561C186.5 91.8138 185.237 93.0766 183.679 93.0766C182.122 93.0766 180.859 91.8138 180.859 90.2561C180.859 88.6983 182.122 87.4355 183.679 87.4355C185.237 87.4355 186.5 88.6983 186.5 90.2561Z" fill="#FFF0F2"/>
<path d="M27.141 21.1535C27.141 22.7112 25.8782 23.974 24.3205 23.974C22.7628 23.974 21.5 22.7112 21.5 21.1535C21.5 19.5958 22.7628 18.333 24.3205 18.333C25.8782 18.333 27.141 19.5958 27.141 21.1535Z" fill="#FFF0F2"/>
<path d="M165.5 70C165.5 108.66 134.16 140 95.5 140C56.8401 140 25.5 108.66 25.5 70C25.5 31.3401 56.8401 0 95.5 0C134.16 0 165.5 31.3401 165.5 70Z" fill="#FFF0F2"/>
<path d="M59.5 57.8835C59.5 50.4276 65.5442 44.3835 73 44.3835H118C125.456 44.3835 131.5 50.4276 131.5 57.8835V98.3835C131.5 105.839 125.456 111.883 118 111.883H73C65.5442 111.883 59.5 105.839 59.5 98.3835V57.8835Z" fill="#F9B233"/>
<path d="M59.5 46.5953C59.5 39.1394 65.5442 33.0953 73 33.0953H118C125.456 33.0953 131.5 39.1394 131.5 46.5953V91.5953C131.5 99.0511 125.456 105.095 118 105.095H73C65.5442 105.095 59.5 99.0511 59.5 91.5953V46.5953Z" fill="#FFD356"/>
<path d="M66.2501 48.8835C66.2501 43.9129 70.2796 39.8835 75.2501 39.8835H115.75C120.721 39.8835 124.75 43.9129 124.75 48.8835V89.3835C124.75 94.354 120.721 98.3835 115.75 98.3835H75.2501C70.2796 98.3835 66.2501 94.354 66.2501 89.3834V48.8835Z" fill="white"/>
<path fill-rule="evenodd" clip-rule="evenodd" d="M90.4551 51.6411C90.4551 51.0198 90.9588 50.5161 91.5801 50.5161H114.08C114.701 50.5161 115.205 51.0198 115.205 51.6411C115.205 52.2624 114.701 52.7661 114.08 52.7661H91.5801C90.9588 52.7661 90.4551 52.2624 90.4551 51.6411Z" fill="#DDDDDD"/>
<path fill-rule="evenodd" clip-rule="evenodd" d="M90.4551 66.277C90.4551 65.6557 90.9588 65.152 91.5801 65.152H114.08C114.701 65.152 115.205 65.6557 115.205 66.277C115.205 66.8983 114.701 67.402 114.08 67.402H91.5801C90.9588 67.402 90.4551 66.8983 90.4551 66.277Z" fill="#DDDDDD"/>
<path fill-rule="evenodd" clip-rule="evenodd" d="M90.4551 80.9132C90.4551 80.2919 90.9588 79.7882 91.5801 79.7882H114.08C114.701 79.7882 115.205 80.2919 115.205 80.9132C115.205 81.5345 114.701 82.0382 114.08 82.0382H91.5801C90.9588 82.0382 90.4551 81.5345 90.4551 80.9132Z" fill="#DDDDDD"/>
<path fill-rule="evenodd" clip-rule="evenodd" d="M90.4551 58.3802C90.4551 57.7589 90.9588 57.2552 91.5801 57.2552H114.08C114.701 57.2552 115.205 57.7589 115.205 58.3802C115.205 59.0016 114.701 59.5052 114.08 59.5052H91.5801C90.9588 59.5052 90.4551 59.0016 90.4551 58.3802Z" fill="#DDDDDD"/>
<path fill-rule="evenodd" clip-rule="evenodd" d="M90.4551 73.0166C90.4551 72.3953 90.9588 71.8916 91.5801 71.8916H114.08C114.701 71.8916 115.205 72.3953 115.205 73.0166C115.205 73.6379 114.701 74.1416 114.08 74.1416H91.5801C90.9588 74.1416 90.4551 73.6379 90.4551 73.0166Z" fill="#DDDDDD"/>
<path fill-rule="evenodd" clip-rule="evenodd" d="M90.4551 87.6526C90.4551 87.0313 90.9588 86.5276 91.5801 86.5276H114.08C114.701 86.5276 115.205 87.0313 115.205 87.6526C115.205 88.2739 114.701 88.7776 114.08 88.7776H91.5801C90.9588 88.7776 90.4551 88.2739 90.4551 87.6526Z" fill="#DDDDDD"/>
<path d="M82.628 58.948H79.0869C77.8889 58.948 76.9199 57.9819 76.9199 56.7788V53.2423C76.9199 52.0392 77.8889 51.073 79.0869 51.073H82.628C83.826 51.073 84.7949 52.0392 84.7949 53.2423V56.7788C84.7949 57.9637 83.8083 58.948 82.628 58.948Z" fill="white"/>
<path fill-rule="evenodd" clip-rule="evenodd" d="M79.0869 52.198C78.51 52.198 78.0449 52.6606 78.0449 53.2422V56.7787C78.0449 57.3603 78.51 57.823 79.0869 57.823H82.628C83.187 57.823 83.6699 57.3423 83.6699 56.7787V53.2422C83.6699 52.6606 83.2048 52.198 82.628 52.198H79.0869ZM75.7949 53.2422C75.7949 51.4176 77.2677 49.948 79.0869 49.948H82.628C84.4471 49.948 85.9199 51.4176 85.9199 53.2422V56.7787C85.9199 58.5849 84.4297 60.073 82.628 60.073H79.0869C77.2677 60.073 75.7949 58.6033 75.7949 56.7787V53.2422Z" fill="#DDDDDD"/>
<path d="M82.628 73.584H79.0869C77.8889 73.584 76.9199 72.6179 76.9199 71.4147V67.8783C76.9199 66.6752 77.8889 65.709 79.0869 65.709H82.628C83.826 65.709 84.7949 66.6752 84.7949 67.8783V71.4147C84.7949 72.5996 83.8083 73.584 82.628 73.584Z" fill="white"/>
<path fill-rule="evenodd" clip-rule="evenodd" d="M79.0869 66.834C78.51 66.834 78.0449 67.2966 78.0449 67.8783V71.4147C78.0449 71.9964 78.51 72.459 79.0869 72.459H82.628C83.187 72.459 83.6699 71.9784 83.6699 71.4147V67.8783C83.6699 67.2966 83.2048 66.834 82.628 66.834H79.0869ZM75.7949 67.8783C75.7949 66.0537 77.2677 64.584 79.0869 64.584H82.628C84.4471 64.584 85.9199 66.0537 85.9199 67.8783V71.4147C85.9199 73.2209 84.4297 74.709 82.628 74.709H79.0869C77.2677 74.709 75.7949 73.2394 75.7949 71.4147V67.8783Z" fill="#DDDDDD"/>
<path d="M82.628 88.2204H79.0869C77.8889 88.2204 76.9199 87.2542 76.9199 86.0511V82.5146C76.9199 81.3115 77.8889 80.3454 79.0869 80.3454H82.628C83.826 80.3454 84.7949 81.3115 84.7949 82.5146V86.0511C84.7949 87.236 83.8083 88.2204 82.628 88.2204Z" fill="white"/>
<path fill-rule="evenodd" clip-rule="evenodd" d="M79.0869 81.4702C78.51 81.4702 78.0449 81.9329 78.0449 82.5145V86.051C78.0449 86.6326 78.51 87.0952 79.0869 87.0952H82.628C83.187 87.0952 83.6699 86.6146 83.6699 86.051V82.5145C83.6699 81.9329 83.2048 81.4702 82.628 81.4702H79.0869ZM75.7949 82.5145C75.7949 80.6899 77.2677 79.2202 79.0869 79.2202H82.628C84.4471 79.2202 85.9199 80.6899 85.9199 82.5145V86.051C85.9199 87.8571 84.4297 89.3452 82.628 89.3452H79.0869C77.2677 89.3452 75.7949 87.8756 75.7949 86.051V82.5145Z" fill="#DDDDDD"/>
<path d="M103.645 30.4702H101.822C101.665 28.1977 99.7072 26.3752 97.2997 26.3752H93.6997C91.2922 26.3752 89.3347 28.1977 89.1772 30.4702H87.3547C84.8347 30.4702 82.8097 32.4502 82.8097 34.8802V38.3677C82.8097 40.7977 84.8572 42.7777 87.3547 42.7777H103.645C106.165 42.7777 108.19 40.7977 108.19 38.3677V34.8802C108.212 32.4502 106.165 30.4702 103.645 30.4702Z" fill="#F9B233"/>
</svg>
